<?xml version="1.0" standalone="no"?><!DOCTYPE svg PUBLIC "-//W3C//DTD SVG 1.1//EN" "http://www.w3.org/Graphics/SVG/1.1/DTD/svg11.dtd"><svg t="1622856965975" class="icon" viewBox="0 0 1024 1024" version="1.1" xmlns="http://www.w3.org/2000/svg" p-id="1280" xmlns:xlink="http://www.w3.org/1999/xlink" width="32" height="32"><defs><style type="text/css"></style></defs><path d="M704 896H320v21.290667A64.064 64.064 0 0 1 256 981.333333c-35.349333 0-64-28.565333-64-64.042666v-27.52a149.482667 149.482667 0 0 1-106.666667-143.232V192.128A149.418667 149.418667 0 0 1 234.794667 42.666667h554.410666A149.418667 149.418667 0 0 1 938.666667 192.128v554.410667a149.482667 149.482667 0 0 1-106.666667 143.253333v27.52A64.064 64.064 0 0 1 768 981.333333c-35.349333 0-64-28.565333-64-64.042666V896zM469.333333 128H234.794667A63.936 63.936 0 0 0 170.666667 191.829333v256.341334A63.914667 63.914667 0 0 0 234.794667 512H469.333333V128z m85.333334 0v384h234.538666A63.936 63.936 0 0 0 853.333333 448.170667V191.829333A63.914667 63.914667 0 0 0 789.205333 128H554.666667z m298.666666 454.954667c-19.413333 9.216-41.173333 14.378667-64.128 14.378666H234.794667A149.226667 149.226667 0 0 1 170.666667 582.954667v163.584A64.085333 64.085333 0 0 0 234.794667 810.666667h554.410666A64.085333 64.085333 0 0 0 853.333333 746.538667v-163.584zM277.333333 768a64 64 0 1 1 0-128 64 64 0 0 1 0 128z m469.333334 0a64 64 0 1 1 0-128 64 64 0 0 1 0 128z" fill="#bfbfbf" p-id="1281"></path></svg>