<svg t="1623918030419" class="icon" viewBox="0 0 1024 1024" version="1.1" xmlns="http://www.w3.org/2000/svg" p-id="2640" width="32" height="32"><path d="M807.617519 496.091159H217.967717a69.964631 69.964631 0 0 1-77.29287-58.334242v-280.733536a69.964631 69.964631 0 0 1 77.29287-58.334241H807.617519a69.964631 69.964631 0 0 1 77.29287 58.334241v280.733536a69.964631 69.964631 0 0 1-77.29287 58.334242zM217.967717 148.674293c-6.198013 0-10.93767 3.64589-10.93767 8.349088v280.733536c0 4.666739 4.849034 8.349088 10.93767 8.349089H807.617519c6.198013 0 10.93767-3.64589 10.937671-8.349089v-280.733536c0-4.666739-4.849034-8.349088-10.937671-8.349088z m22.969108 380.813219c-55.198776 0-100.261977 34.089072-100.261978 75.834513s45.063201 75.834514 100.261978 75.834514 100.261977-34.089072 100.261977-75.834514-45.026742-75.798055-100.261977-75.798054z m-94.063964 61.287412a44.11527 44.11527 0 0 1 2.442746-7.000109 80.756465 80.756465 0 0 0-2.442746 7.036568z m29.604627-39.083942a103.579737 103.579737 0 0 1 10.93767-6.526143 103.579737 103.579737 0 0 0-10.974129 6.562602z m64.495795 80.209582c-19.432594 0-35.109921-11.849143-35.109921-26.54208s15.677327-26.54208 35.109921-26.542079 35.109921 11.849143 35.109922 26.542079-15.93254 26.54208-35.14638 26.54208z m53.448749-86.516972a103.579737 103.579737 0 0 1 10.93767 6.526144 66.646871 66.646871 0 0 0-10.974129-6.671979z m40.396462 45.427791a44.005893 44.005893 0 0 0-2.442746-7.000109c0.875014 2.33337 1.750027 4.666739 2.442746 7.000109z m449.866377-61.287412c-55.198776 0-100.261977 34.089072-100.261977 75.834513s45.063201 75.834514 100.261977 75.834514 100.261977-34.089072 100.261977-75.834514-44.844448-75.834514-100.298436-75.834513z m-64.495796 22.20347a103.579737 103.579737 0 0 1 10.937671-6.526143 111.053812 111.053812 0 0 0-10.937671 6.526143z m31.792162 70.32922a26.141032 26.141032 0 0 0 4.849034 4.338609 27.234799 27.234799 0 0 1-4.849034-4.338609z m32.81301 9.843903c-19.432594 0-35.109921-11.849143-35.109921-26.54208s15.677327-26.54208 35.109921-26.542079 35.109921 11.849143 35.109922 26.542079-15.823163 26.54208-35.255757 26.54208z m53.667502-86.516972a103.652655 103.652655 0 0 1 10.937671 6.526144 66.646871 66.646871 0 0 0-11.083506-6.671979z m40.396462 45.427791a44.11527 44.11527 0 0 0-2.442746-7.000109c0.765637 2.33337 1.640651 4.666739 2.33337 7.000109z" p-id="2641"></path><path d="M1013.24572 972.098567l-80.428335-77.803294a159.617068 159.617068 0 0 0 43.459009-109.085031V163.731819A167.236978 167.236978 0 0 0 805.867492 0.031355H220.920888a167.49219 167.49219 0 0 0-170.408902 163.700464v621.514882a158.596218 158.596218 0 0 0 42.219407 107.663134l-82.032527 79.188732a30.18797 30.18797 0 0 0-9.151184 21.109704 29.896299 29.896299 0 0 0 50.787249 21.87534L140.893601 929.733325a176.278785 176.278785 0 0 0 80.027287 19.286758h584.946604a176.497539 176.497539 0 0 0 78.204342-18.22945l87.501362 84.694026a29.85984 29.85984 0 0 0 50.787249-21.87534 30.260888 30.260888 0 0 0-9.151184-21.328457z m-207.378228-83.089835H220.920888a107.189168 107.189168 0 0 1-110.288175-103.79849V163.731819a107.335004 107.335004 0 0 1 110.288175-103.79849h584.946604a107.189168 107.189168 0 0 1 110.288175 103.79849v621.514882a107.480839 107.480839 0 0 1-110.288175 103.79849z m186.560195 130.632242a42.766291 42.766291 0 0 0 5.067788-0.401048 42.766291 42.766291 0 0 1-5.067788 0.401048z m25.193101-19.505512a24.500381 24.500381 0 0 1-6.489684 11.59393 27.963977 27.963977 0 0 1-8.130335 5.687589 24.573299 24.573299 0 0 0 8.130335-5.687589 25.521231 25.521231 0 0 0 6.380307-11.59393z" p-id="2642"></path></svg>